<svg width="12" height="16" viewBox="0 0 12 16" fill="none" xmlns="http://www.w3.org/2000/svg">
<path d="M8.05375 15.1971C7.73158 15.2026 7.41 15.1674 7.09666 15.0924C3.96938 14.2284 -0.138254 6.98182 0.725746 3.85745C1.119 2.75041 1.87312 1.80777 2.86684 1.18109C3.05884 1.06764 3.25375 0.965818 3.44865 0.872727C3.62753 0.791287 3.83044 0.779869 4.01733 0.840727C4.20421 0.901586 4.36149 1.0303 4.45811 1.20145L6.10175 4.11054C6.15631 4.20584 6.19021 4.31156 6.20124 4.42082C6.21227 4.53009 6.20017 4.64044 6.16575 4.74473C6.13067 4.84924 6.0743 4.94534 6.0002 5.02696C5.92609 5.10858 5.83586 5.17394 5.7352 5.21891C5.5752 5.28873 5.41811 5.36145 5.26684 5.44C4.60647 5.77164 4.22829 6.07127 4.14102 6.33309C3.94029 6.95563 4.17884 8.00873 4.74902 9.01527C5.3192 10.0218 6.0872 10.7607 6.73011 10.8975C6.9192 10.9411 7.31193 10.8975 8.07411 10.3942C8.21956 10.304 8.36502 10.2051 8.50756 10.1033C8.59714 10.0398 8.69903 9.99573 8.80667 9.97403C8.9143 9.95234 9.0253 9.95345 9.13248 9.97729C9.23966 10.0011 9.34065 10.0472 9.42894 10.1125C9.51722 10.1778 9.59083 10.2609 9.64502 10.3564L11.2916 13.2655C11.3899 13.4365 11.4203 13.6383 11.3766 13.8308C11.333 14.0232 11.2185 14.1921 11.0559 14.304C10.8785 14.4204 10.6894 14.5367 10.4916 14.6444C9.73549 15.0227 8.89906 15.2123 8.05375 15.1971ZM3.77156 1.23345C3.72331 1.23435 3.67576 1.24525 3.63193 1.26545C3.45156 1.34982 3.26829 1.44873 3.08793 1.55636C2.19247 2.12583 1.50952 2.9744 1.14465 3.97091C0.77811 5.30036 1.42102 7.712 2.78247 10.112C4.14393 12.512 5.88356 14.304 7.21302 14.6735C8.25433 14.8733 9.33245 14.7261 10.2821 14.2545C10.4683 14.1527 10.6457 14.0451 10.8116 13.9345C10.8828 13.8844 10.9328 13.8095 10.9516 13.7245C10.9705 13.6394 10.9568 13.5504 10.9134 13.4749L9.26684 10.5658C9.24273 10.5235 9.21012 10.4867 9.17107 10.4577C9.13201 10.4286 9.08736 10.408 9.03993 10.3971C8.99008 10.3856 8.93837 10.3849 8.88822 10.3949C8.83806 10.4049 8.79061 10.4255 8.74902 10.4553C8.60066 10.56 8.45811 10.6618 8.30102 10.7462C7.56211 11.2233 7.02975 11.4007 6.62538 11.3105C5.85447 11.136 5.00793 10.3535 4.36211 9.216C3.85884 8.34327 3.42829 7.07491 3.7192 6.18473C3.84429 5.79782 4.27193 5.43127 5.06029 5.02109C5.21738 4.93963 5.3832 4.864 5.54902 4.79127C5.59436 4.77117 5.63507 4.74194 5.66861 4.7054C5.70214 4.66886 5.72778 4.6258 5.74393 4.57891C5.76002 4.53113 5.76574 4.48048 5.76073 4.43032C5.75571 4.38016 5.74007 4.33164 5.71484 4.288L4.06829 1.37891C4.03419 1.33276 3.98933 1.29566 3.93762 1.27081C3.8859 1.24597 3.8289 1.23414 3.77156 1.23636V1.23345Z" fill="#8C3213"/>
</svg>
