<svg width="32" height="25" viewBox="0 0 32 25" fill="none" xmlns="http://www.w3.org/2000/svg">
<path d="M31.957 0.00718358C31.8473 -0.00239453 31.7369 -0.00239453 31.6272 0.00718358H23.2067H18.1218C13.3429 0.180678 9.7507 1.36623 7.34528 3.56382C7.23059 3.66502 7.12064 3.76621 7.0155 3.87706C5.6325 5.27629 4.65714 7.03172 4.1959 8.95178L0 25H13.859C18.6157 24.8265 22.1967 23.6506 24.6022 21.4723C24.7169 21.3711 24.8267 21.265 24.9367 21.159C26.3415 19.7575 27.3339 17.991 27.804 16.0554L32 0.00718358H31.957ZM19.503 13.9012C19.2219 14.9994 18.6485 15.9993 17.8447 16.7927C17.7348 16.8988 17.6201 17.0048 17.5006 17.106L17.2999 17.265C16.3645 17.9829 15.2418 18.41 14.0693 18.494H10.4611L12.4635 11.1108C12.7385 10.0165 13.3016 9.01743 14.0932 8.21924C14.2031 8.11321 14.3178 8.00718 14.4373 7.90597L14.6666 7.71804C15.602 7.00016 16.7247 6.57304 17.8972 6.4891H21.5101L19.503 13.9012Z" fill="#84C551"/>
</svg>
