<?xml version="1.0" standalone="no"?>
<!DOCTYPE svg PUBLIC "-//W3C//DTD SVG 20010904//EN"
 "http://www.w3.org/TR/2001/REC-SVG-20010904/DTD/svg10.dtd">
<svg version="1.0" xmlns="http://www.w3.org/2000/svg"
 width="512.000000pt" height="512.000000pt" viewBox="0 0 512.000000 512.000000"
 preserveAspectRatio="xMidYMid meet">

<g transform="translate(0.000000,512.000000) scale(0.100000,-0.100000)"
fill="#000000" stroke="none">
<path d="M1380 4822 c-19 -9 -44 -31 -55 -47 -11 -17 -184 -403 -385 -857
l-364 -827 -237 -3 c-222 -3 -239 -4 -265 -24 -94 -70 -96 -190 -5 -251 30
-20 47 -23 137 -23 69 0 104 -4 104 -11 0 -6 83 -545 185 -1197 134 -865 190
-1197 203 -1222 12 -21 36 -44 63 -58 l43 -22 1756 0 c1689 0 1757 1 1796 19
23 11 50 33 61 52 19 31 137 761 390 2402 l6 37 102 0 c89 0 106 3 136 23 91
61 89 181 -5 251 -26 20 -43 21 -265 24 l-237 3 -364 827 c-201 454 -374 840
-385 857 -40 59 -67 65 -300 65 -186 0 -214 -2 -245 -19 -107 -56 -107 -210 0
-263 29 -15 62 -18 181 -18 l146 0 316 -717 c175 -395 317 -721 317 -725 0 -5
-742 -8 -1650 -8 -907 0 -1650 3 -1650 8 0 4 142 330 317 725 l316 717 146 0
c119 0 152 3 181 18 107 53 107 207 0 263 -31 17 -59 19 -245 19 -180 0 -215
-3 -245 -18z m3123 -2074 c-3 -24 -81 -520 -172 -1103 l-166 -1060 -1605 0
-1605 0 -166 1060 c-91 583 -169 1079 -172 1103 l-7 42 1950 0 1950 0 -7 -42z"/>
<path d="M1554 2386 c-37 -16 -71 -57 -82 -100 -11 -38 82 -1187 99 -1229 24
-57 110 -99 173 -83 40 10 94 64 105 103 8 27 -2 185 -39 626 -55 656 -51 635
-130 675 -50 25 -81 27 -126 8z"/>
<path d="M2494 2380 c-25 -12 -49 -35 -62 -59 -22 -39 -22 -41 -22 -637 l0
-599 23 -39 c57 -100 197 -100 254 0 l23 39 -3 607 c-2 595 -2 607 -23 634
-51 70 -121 89 -190 54z"/>
<path d="M3440 2378 c-79 -41 -75 -18 -130 -680 -38 -454 -47 -600 -39 -625
12 -37 68 -90 105 -99 36 -9 94 2 124 24 56 42 56 41 105 627 54 646 54 650
32 692 -39 74 -122 100 -197 61z"/>
</g>
</svg>
