<svg width="18" height="18" viewBox="0 0 18 18" fill="none" xmlns="http://www.w3.org/2000/svg">
<path fill-rule="evenodd" clip-rule="evenodd" d="M2.33268 12.3333V14C2.33268 15.8417 3.82518 17.3333 5.66602 17.3333H13.9993C15.841 17.3333 17.3327 15.8417 17.3327 14C17.3327 11.2258 17.3327 6.77499 17.3327 3.99999C17.3327 2.15916 15.841 0.666656 13.9993 0.666656C11.6168 0.666656 8.04935 0.666656 5.66602 0.666656C3.82518 0.666656 2.33268 2.15916 2.33268 3.99999V5.66666C2.33268 6.12666 2.70602 6.49999 3.16602 6.49999C3.62602 6.49999 3.99935 6.12666 3.99935 5.66666C3.99935 5.66666 3.99935 4.88582 3.99935 3.99999C3.99935 3.07999 4.74602 2.33332 5.66602 2.33332H13.9993C14.9202 2.33332 15.666 3.07999 15.666 3.99999V14C15.666 14.9208 14.9202 15.6667 13.9993 15.6667C11.6168 15.6667 8.04935 15.6667 5.66602 15.6667C4.74602 15.6667 3.99935 14.9208 3.99935 14C3.99935 13.115 3.99935 12.3333 3.99935 12.3333C3.99935 11.8742 3.62602 11.5 3.16602 11.5C2.70602 11.5 2.33268 11.8742 2.33268 12.3333ZM8.65435 8.16666L7.57685 7.08998C7.25185 6.76415 7.25185 6.23666 7.57685 5.91082C7.90268 5.58582 8.43018 5.58582 8.75518 5.91082L11.2552 8.41082C11.581 8.73666 11.581 9.26415 11.2552 9.58998L8.75518 12.09C8.43018 12.415 7.90268 12.415 7.57685 12.09C7.25185 11.7642 7.25185 11.2367 7.57685 10.9108L8.65435 9.83332H1.49935C1.03935 9.83332 0.666016 9.45999 0.666016 8.99999C0.666016 8.54082 1.03935 8.16666 1.49935 8.16666H8.65435Z" fill="#84BE51"/>
</svg>
